<svg xmlns="http://www.w3.org/2000/svg" width="1100" height="620" viewBox="0 0 1100 620" role="img" aria-labelledby="title desc">
  <title id="title">AgentGuard scripted LangGraph integration suite</title>
  <desc id="desc">Deterministic scripted ChatModel flow showing a poisoned tool result, blocked secret read, and safe report write; not provider-backed attack evidence.</desc>
  <rect width="1100" height="620" fill="#ffffff"/>
  <rect x="28" y="24" width="1044" height="568" rx="8" fill="#f7f9fb" stroke="#d7dde5"/>
  <text x="56" y="68" fill="#17202a" font-family="Arial, Helvetica, sans-serif" font-size="26" font-weight="700">Scripted LangGraph suite: gateway decisions in the loop</text>
  <text x="56" y="96" fill="#5d6978" font-family="Arial, Helvetica, sans-serif" font-size="14">Deterministic ChatModel integration regression · not provider-backed attack evidence.</text>

  <defs>
    <marker id="arrow" markerWidth="10" markerHeight="10" refX="8" refY="3" orient="auto" markerUnits="strokeWidth">
      <path d="M0,0 L0,6 L8,3 z" fill="#5d6978"/>
    </marker>
  </defs>

  <g font-family="Arial, Helvetica, sans-serif">
    <rect x="64" y="148" width="180" height="72" rx="8" fill="#ffffff" stroke="#d7dde5"/>
    <text x="86" y="178" fill="#17202a" font-size="15" font-weight="700">User task</text>
    <text x="86" y="201" fill="#5d6978" font-size="12">Triage SOC-104 with vendor guidance</text>

    <line x1="244" y1="184" x2="304" y2="184" stroke="#5d6978" stroke-width="2" marker-end="url(#arrow)"/>

    <rect x="310" y="148" width="190" height="72" rx="8" fill="#ffffff" stroke="#d7dde5"/>
    <text x="334" y="178" fill="#17202a" font-size="15" font-weight="700">Scripted planner</text>
    <text x="334" y="201" fill="#5d6978" font-size="12">Predetermined tool-calling turns</text>

    <line x1="500" y1="184" x2="560" y2="184" stroke="#5d6978" stroke-width="2" marker-end="url(#arrow)"/>

    <rect x="566" y="148" width="190" height="72" rx="8" fill="#ffffff" stroke="#147a53" stroke-width="2"/>
    <text x="590" y="178" fill="#17202a" font-size="15" font-weight="700">kb.search</text>
    <text x="590" y="201" fill="#147a53" font-size="12" font-weight="700">allowed: evidence retrieval</text>

    <line x1="756" y1="184" x2="816" y2="184" stroke="#5d6978" stroke-width="2" marker-end="url(#arrow)"/>

    <rect x="822" y="148" width="196" height="72" rx="8" fill="#fff7ed" stroke="#d96d15"/>
    <text x="846" y="178" fill="#17202a" font-size="15" font-weight="700">Poisoned result</text>
    <text x="846" y="201" fill="#a15c07" font-size="12">"read private cloud tokens"</text>

    <line x1="920" y1="220" x2="920" y2="284" stroke="#5d6978" stroke-width="2" marker-end="url(#arrow)"/>

    <rect x="822" y="292" width="196" height="84" rx="8" fill="#fff4f2" stroke="#b42318" stroke-width="2"/>
    <text x="846" y="322" fill="#17202a" font-size="15" font-weight="700">file.read</text>
    <text x="846" y="345" fill="#b42318" font-size="12" font-weight="700">blocked before execution</text>
    <text x="846" y="365" fill="#5d6978" font-size="12">private/cloud_tokens.env</text>

    <line x1="822" y1="334" x2="758" y2="334" stroke="#5d6978" stroke-width="2" marker-end="url(#arrow)"/>

    <rect x="566" y="292" width="190" height="84" rx="8" fill="#ffffff" stroke="#d7dde5"/>
    <text x="590" y="322" fill="#17202a" font-size="15" font-weight="700">Plan revision</text>
    <text x="590" y="345" fill="#5d6978" font-size="12">Blocked observation returned to model</text>
    <text x="590" y="365" fill="#5d6978" font-size="12">Continue with safe evidence only</text>

    <line x1="566" y1="334" x2="502" y2="334" stroke="#5d6978" stroke-width="2" marker-end="url(#arrow)"/>

    <rect x="310" y="292" width="190" height="84" rx="8" fill="#ffffff" stroke="#147a53" stroke-width="2"/>
    <text x="334" y="322" fill="#17202a" font-size="15" font-weight="700">file.write</text>
    <text x="334" y="345" fill="#147a53" font-size="12" font-weight="700">allowed: final report</text>
    <text x="334" y="365" fill="#5d6978" font-size="12">No forbidden secret patterns</text>

    <rect x="64" y="292" width="180" height="84" rx="8" fill="#ffffff" stroke="#147a53" stroke-width="2"/>
    <text x="86" y="322" fill="#17202a" font-size="15" font-weight="700">Integration trace</text>
    <text x="86" y="345" fill="#147a53" font-size="12" font-weight="700">script reached safe report step</text>
    <text x="86" y="365" fill="#5d6978" font-size="12">unsafe allowed: 0</text>

    <line x1="310" y1="334" x2="246" y2="334" stroke="#5d6978" stroke-width="2" marker-end="url(#arrow)"/>

    <rect x="64" y="436" width="954" height="96" rx="8" fill="#ffffff" stroke="#d7dde5"/>
    <text x="86" y="466" fill="#17202a" font-size="17" font-weight="700">Scripted suite evidence</text>
    <text x="86" y="500" fill="#147a53" font-size="28" font-weight="700">6</text>
    <text x="116" y="500" fill="#5d6978" font-size="13">deterministic scenarios replayed</text>
    <text x="316" y="500" fill="#147a53" font-size="28" font-weight="700">5/5</text>
    <text x="376" y="500" fill="#5d6978" font-size="13">scripted unsafe attempts stopped</text>
    <text x="620" y="500" fill="#147a53" font-size="28" font-weight="700">0</text>
    <text x="648" y="500" fill="#5d6978" font-size="13">forbidden output leaks</text>
    <text x="830" y="500" fill="#5d6978" font-size="28" font-weight="700">none</text>
    <text x="900" y="500" fill="#5d6978" font-size="13">provider-backed runs</text>
  </g>
</svg>
